<svg xmlns="http://www.w3.org/2000/svg" viewBox="0 0 410 404"><path fill="#41D1FF" d="M399.641 59.524 215.755 388.488c-2.483 4.44-8.862 4.466-11.382.048L9.93 59.56c-2.746-4.785 1.371-10.646 6.827-9.67l186.141 33.209a6.537 6.537 0 0 0 2.32-.003l187.592-33.232c5.47-.97 9.574 4.912 6.816 9.698Z"/><path fill="#BD34FE" d="M292.965 1.574 156.3 28.451a3.268 3.268 0 0 0-2.634 3.014l-8.547 147.422a3.268 3.268 0 0 0 3.997 3.378l39.275-9.951c2.318-.587 4.413 1.507 3.826 3.826l-11.664 45.96c-.598 2.357 1.782 4.449 4.076 3.78l24.275-7.177c2.295-.679 4.478 1.37 3.904 3.701l-18.533 78.34c-.703 2.97 3.118 4.815 4.967 2.238l1.313-1.823 115.98-230.38c1.215-2.416-.88-5.186-3.54-4.672l-40.505 7.777c-2.33.447-4.328-1.77-3.498-4.016l26.34-73.144c.83-2.302-.98-4.713-3.388-4.214Z"/><path fill="#FFA800" d="M300.872 106.677 184.94 241.184c-1.697 1.986-4.872.59-4.548-2.03l5.37-43.38c.245-1.978-1.554-3.584-3.492-3.095l-26.453 6.63c-2.02.507-3.902-1.226-3.34-3.255l17.522-63.52c.55-1.998-1.29-3.783-3.254-3.266l-16.356 4.259c-1.998.52-3.862-1.31-3.287-3.313l27.828-97.88c.58-2.035 3.27-2.352 4.35-.46l3.75 6.682c.86 1.531 2.644 2.33 4.353 1.942l85.353-19.53c2.514-.575 4.653 1.86 3.78 4.315l-24.017 68.435c-.78 2.224 1.21 4.397 3.478 3.902l22.963-5.01c2.286-.498 4.18 1.77 3.367 3.985Z"/></svg>
